<mxfile host="app.diagrams.net" agent="Mozilla/5.0 (Windows NT 10.0; Win64; x64) AppleWebKit/537.36 (KHTML, like Gecko) Chrome/135.0.0.0 Safari/537.36 Edg/135.0.0.0" version="26.1.1">
  <diagram name="PÃ¡gina-1" id="cOGGaYVH6k75WTfQJcAd">
    <mxGraphModel dx="2192" dy="708" grid="1" gridSize="10" guides="1" tooltips="1" connect="1" arrows="1" fold="1" page="1" pageScale="1" pageWidth="827" pageHeight="1169" math="0" shadow="0">
      <root>
        <mxCell id="0" />
        <mxCell id="1" parent="0" />
        <mxCell id="AUFBeyaG6jMyzO9sZ9vq-1" value="Region" style="sketch=0;outlineConnect=0;gradientColor=none;html=1;whiteSpace=wrap;fontSize=12;fontStyle=0;shape=mxgraph.aws4.group;grIcon=mxgraph.aws4.group_region;strokeColor=#879196;fillColor=none;verticalAlign=top;align=left;spacingLeft=30;fontColor=#879196;dashed=1;" vertex="1" parent="1">
          <mxGeometry x="60" y="30" width="740" height="690" as="geometry" />
        </mxCell>
        <mxCell id="AUFBeyaG6jMyzO9sZ9vq-2" value="VPC" style="points=[[0,0],[0.25,0],[0.5,0],[0.75,0],[1,0],[1,0.25],[1,0.5],[1,0.75],[1,1],[0.75,1],[0.5,1],[0.25,1],[0,1],[0,0.75],[0,0.5],[0,0.25]];outlineConnect=0;gradientColor=none;html=1;whiteSpace=wrap;fontSize=12;fontStyle=0;container=1;pointerEvents=0;collapsible=0;recursiveResize=0;shape=mxgraph.aws4.group;grIcon=mxgraph.aws4.group_vpc2;strokeColor=#8C4FFF;fillColor=none;verticalAlign=top;align=left;spacingLeft=30;fontColor=#AAB7B8;dashed=0;" vertex="1" parent="1">
          <mxGeometry x="90" y="60" width="680" height="630" as="geometry" />
        </mxCell>
        <mxCell id="AUFBeyaG6jMyzO9sZ9vq-3" value="Private subnet" style="points=[[0,0],[0.25,0],[0.5,0],[0.75,0],[1,0],[1,0.25],[1,0.5],[1,0.75],[1,1],[0.75,1],[0.5,1],[0.25,1],[0,1],[0,0.75],[0,0.5],[0,0.25]];outlineConnect=0;gradientColor=none;html=1;whiteSpace=wrap;fontSize=12;fontStyle=0;container=1;pointerEvents=0;collapsible=0;recursiveResize=0;shape=mxgraph.aws4.group;grIcon=mxgraph.aws4.group_security_group;grStroke=0;strokeColor=#00A4A6;fillColor=#E6F6F7;verticalAlign=top;align=left;spacingLeft=30;fontColor=#147EBA;dashed=0;" vertex="1" parent="1">
          <mxGeometry x="530" y="110" width="190" height="550" as="geometry" />
        </mxCell>
        <mxCell id="AUFBeyaG6jMyzO9sZ9vq-4" value="Public subnet" style="points=[[0,0],[0.25,0],[0.5,0],[0.75,0],[1,0],[1,0.25],[1,0.5],[1,0.75],[1,1],[0.75,1],[0.5,1],[0.25,1],[0,1],[0,0.75],[0,0.5],[0,0.25]];outlineConnect=0;gradientColor=none;html=1;whiteSpace=wrap;fontSize=12;fontStyle=0;container=1;pointerEvents=0;collapsible=0;recursiveResize=0;shape=mxgraph.aws4.group;grIcon=mxgraph.aws4.group_security_group;grStroke=0;strokeColor=#7AA116;fillColor=#F2F6E8;verticalAlign=top;align=left;spacingLeft=30;fontColor=#248814;dashed=0;" vertex="1" parent="1">
          <mxGeometry x="250" y="110" width="190" height="550" as="geometry" />
        </mxCell>
        <mxCell id="AUFBeyaG6jMyzO9sZ9vq-5" value="Availability zone" style="sketch=0;outlineConnect=0;gradientColor=none;html=1;whiteSpace=wrap;fontSize=12;fontStyle=0;shape=mxgraph.aws4.group;grIcon=mxgraph.aws4.group_availability_zone;strokeColor=#545B64;fillColor=none;verticalAlign=top;align=left;spacingLeft=30;fontColor=#545B64;dashed=1;" vertex="1" parent="1">
          <mxGeometry x="110" y="110" width="630" height="170" as="geometry" />
        </mxCell>
        <mxCell id="AUFBeyaG6jMyzO9sZ9vq-10" value="Availability zone" style="sketch=0;outlineConnect=0;gradientColor=none;html=1;whiteSpace=wrap;fontSize=12;fontStyle=0;shape=mxgraph.aws4.group;grIcon=mxgraph.aws4.group_availability_zone;strokeColor=#545B64;fillColor=none;verticalAlign=top;align=left;spacingLeft=30;fontColor=#545B64;dashed=1;" vertex="1" parent="1">
          <mxGeometry x="110" y="300" width="630" height="170" as="geometry" />
        </mxCell>
        <mxCell id="AUFBeyaG6jMyzO9sZ9vq-11" value="Availability zone" style="sketch=0;outlineConnect=0;gradientColor=none;html=1;whiteSpace=wrap;fontSize=12;fontStyle=0;shape=mxgraph.aws4.group;grIcon=mxgraph.aws4.group_availability_zone;strokeColor=#545B64;fillColor=none;verticalAlign=top;align=left;spacingLeft=30;fontColor=#545B64;dashed=1;" vertex="1" parent="1">
          <mxGeometry x="110" y="490" width="630" height="170" as="geometry" />
        </mxCell>
        <mxCell id="AUFBeyaG6jMyzO9sZ9vq-12" value="" style="sketch=0;outlineConnect=0;fontColor=#232F3E;gradientColor=none;fillColor=#8C4FFF;strokeColor=none;dashed=0;verticalLabelPosition=bottom;verticalAlign=top;align=center;html=1;fontSize=12;fontStyle=0;aspect=fixed;pointerEvents=1;shape=mxgraph.aws4.application_load_balancer;" vertex="1" parent="1">
          <mxGeometry x="210" y="337" width="78" height="78" as="geometry" />
        </mxCell>
        <mxCell id="AUFBeyaG6jMyzO9sZ9vq-13" value="Elastic Load Balancing" style="sketch=0;outlineConnect=0;gradientColor=none;html=1;whiteSpace=wrap;fontSize=12;fontStyle=0;shape=mxgraph.aws4.groupCenter;grIcon=mxgraph.aws4.group_elastic_load_balancing;grStroke=1;strokeColor=#007DBC;fillColor=none;verticalAlign=top;align=center;fontColor=#007DBC;dashed=0;spacingTop=25;" vertex="1" parent="1">
          <mxGeometry x="250" y="150" width="190" height="450" as="geometry" />
        </mxCell>
        <mxCell id="AUFBeyaG6jMyzO9sZ9vq-15" value="Auto Scaling group" style="points=[[0,0],[0.25,0],[0.5,0],[0.75,0],[1,0],[1,0.25],[1,0.5],[1,0.75],[1,1],[0.75,1],[0.5,1],[0.25,1],[0,1],[0,0.75],[0,0.5],[0,0.25]];outlineConnect=0;gradientColor=none;html=1;whiteSpace=wrap;fontSize=12;fontStyle=0;container=1;pointerEvents=0;collapsible=0;recursiveResize=0;shape=mxgraph.aws4.groupCenter;grIcon=mxgraph.aws4.group_auto_scaling_group;grStroke=1;strokeColor=#D86613;fillColor=none;verticalAlign=top;align=center;fontColor=#D86613;dashed=1;spacingTop=25;" vertex="1" parent="1">
          <mxGeometry x="530" y="150" width="190" height="450" as="geometry" />
        </mxCell>
        <mxCell id="AUFBeyaG6jMyzO9sZ9vq-17" value="" style="outlineConnect=0;dashed=0;verticalLabelPosition=bottom;verticalAlign=top;align=center;html=1;shape=mxgraph.aws3.ec2;fillColor=#F58534;gradientColor=none;" vertex="1" parent="AUFBeyaG6jMyzO9sZ9vq-15">
          <mxGeometry x="70" y="50" width="41.13" height="50" as="geometry" />
        </mxCell>
        <mxCell id="AUFBeyaG6jMyzO9sZ9vq-18" value="" style="outlineConnect=0;dashed=0;verticalLabelPosition=bottom;verticalAlign=top;align=center;html=1;shape=mxgraph.aws3.ec2;fillColor=#F58534;gradientColor=none;" vertex="1" parent="AUFBeyaG6jMyzO9sZ9vq-15">
          <mxGeometry x="74.44" y="201" width="41.13" height="50" as="geometry" />
        </mxCell>
        <mxCell id="AUFBeyaG6jMyzO9sZ9vq-19" value="" style="outlineConnect=0;dashed=0;verticalLabelPosition=bottom;verticalAlign=top;align=center;html=1;shape=mxgraph.aws3.ec2;fillColor=#F58534;gradientColor=none;" vertex="1" parent="AUFBeyaG6jMyzO9sZ9vq-15">
          <mxGeometry x="74.44" y="380" width="41.13" height="50" as="geometry" />
        </mxCell>
        <mxCell id="AUFBeyaG6jMyzO9sZ9vq-22" style="edgeStyle=orthogonalEdgeStyle;rounded=0;orthogonalLoop=1;jettySize=auto;html=1;" edge="1" parent="1" source="AUFBeyaG6jMyzO9sZ9vq-16" target="AUFBeyaG6jMyzO9sZ9vq-18">
          <mxGeometry relative="1" as="geometry" />
        </mxCell>
        <mxCell id="AUFBeyaG6jMyzO9sZ9vq-16" value="" style="outlineConnect=0;dashed=0;verticalLabelPosition=bottom;verticalAlign=top;align=center;html=1;shape=mxgraph.aws3.auto_scaling;fillColor=#F58534;gradientColor=none;" vertex="1" parent="1">
          <mxGeometry x="490" y="338" width="79.5" height="76.5" as="geometry" />
        </mxCell>
        <mxCell id="AUFBeyaG6jMyzO9sZ9vq-20" style="edgeStyle=orthogonalEdgeStyle;rounded=0;orthogonalLoop=1;jettySize=auto;html=1;entryX=0;entryY=0.5;entryDx=0;entryDy=0;entryPerimeter=0;" edge="1" parent="1" source="AUFBeyaG6jMyzO9sZ9vq-16" target="AUFBeyaG6jMyzO9sZ9vq-17">
          <mxGeometry relative="1" as="geometry">
            <Array as="points">
              <mxPoint x="530" y="225" />
            </Array>
          </mxGeometry>
        </mxCell>
        <mxCell id="AUFBeyaG6jMyzO9sZ9vq-21" style="edgeStyle=orthogonalEdgeStyle;rounded=0;orthogonalLoop=1;jettySize=auto;html=1;entryX=0;entryY=0.5;entryDx=0;entryDy=0;entryPerimeter=0;" edge="1" parent="1" source="AUFBeyaG6jMyzO9sZ9vq-16" target="AUFBeyaG6jMyzO9sZ9vq-19">
          <mxGeometry relative="1" as="geometry">
            <Array as="points">
              <mxPoint x="530" y="555" />
            </Array>
          </mxGeometry>
        </mxCell>
        <mxCell id="AUFBeyaG6jMyzO9sZ9vq-24" style="edgeStyle=orthogonalEdgeStyle;rounded=0;orthogonalLoop=1;jettySize=auto;html=1;entryX=0;entryY=0.5;entryDx=0;entryDy=0;entryPerimeter=0;" edge="1" parent="1" source="AUFBeyaG6jMyzO9sZ9vq-12" target="AUFBeyaG6jMyzO9sZ9vq-16">
          <mxGeometry relative="1" as="geometry" />
        </mxCell>
        <mxCell id="AUFBeyaG6jMyzO9sZ9vq-25" value="" style="outlineConnect=0;dashed=0;verticalLabelPosition=bottom;verticalAlign=top;align=center;html=1;shape=mxgraph.aws3.s3;fillColor=#E05243;gradientColor=none;" vertex="1" parent="1">
          <mxGeometry x="850" y="330" width="76.5" height="93" as="geometry" />
        </mxCell>
        <mxCell id="AUFBeyaG6jMyzO9sZ9vq-26" style="edgeStyle=orthogonalEdgeStyle;rounded=0;orthogonalLoop=1;jettySize=auto;html=1;" edge="1" parent="1" source="AUFBeyaG6jMyzO9sZ9vq-17" target="AUFBeyaG6jMyzO9sZ9vq-25">
          <mxGeometry relative="1" as="geometry" />
        </mxCell>
        <mxCell id="AUFBeyaG6jMyzO9sZ9vq-27" style="edgeStyle=orthogonalEdgeStyle;rounded=0;orthogonalLoop=1;jettySize=auto;html=1;" edge="1" parent="1" source="AUFBeyaG6jMyzO9sZ9vq-19" target="AUFBeyaG6jMyzO9sZ9vq-25">
          <mxGeometry relative="1" as="geometry" />
        </mxCell>
        <mxCell id="AUFBeyaG6jMyzO9sZ9vq-28" style="edgeStyle=orthogonalEdgeStyle;rounded=0;orthogonalLoop=1;jettySize=auto;html=1;" edge="1" parent="1" source="AUFBeyaG6jMyzO9sZ9vq-18" target="AUFBeyaG6jMyzO9sZ9vq-25">
          <mxGeometry relative="1" as="geometry" />
        </mxCell>
        <mxCell id="AUFBeyaG6jMyzO9sZ9vq-30" style="edgeStyle=orthogonalEdgeStyle;rounded=0;orthogonalLoop=1;jettySize=auto;html=1;" edge="1" parent="1" source="AUFBeyaG6jMyzO9sZ9vq-29" target="AUFBeyaG6jMyzO9sZ9vq-12">
          <mxGeometry relative="1" as="geometry" />
        </mxCell>
        <mxCell id="AUFBeyaG6jMyzO9sZ9vq-29" value="" style="html=1;verticalLabelPosition=bottom;align=center;labelBackgroundColor=#ffffff;verticalAlign=top;strokeWidth=2;strokeColor=#0080F0;shadow=0;dashed=0;shape=mxgraph.ios7.icons.user;" vertex="1" parent="1">
          <mxGeometry x="-20" y="361" width="30" height="30" as="geometry" />
        </mxCell>
      </root>
    </mxGraphModel>
  </diagram>
</mxfile>
